<svg width="48" height="48" viewBox="0 0 48 48" fill="none" xmlns="http://www.w3.org/2000/svg">
<path d="M9.57141 10H36.4503C39.1805 10 41.1084 12.6748 40.245 15.2649L36.9117 25.2649C36.3672 26.8983 34.8387 28 33.1169 28H12.1428M9.57141 10L9.49062 9.43431C9.2091 7.46372 7.52142 6 5.53082 6H4M9.57141 10L12.1428 28M12.1428 28L12.5094 30.5657C12.7909 32.5363 14.4786 34 16.4692 34H34M34 34C31.7909 34 30 35.7909 30 38C30 40.2091 31.7909 42 34 42C36.2091 42 38 40.2091 38 38C38 35.7909 36.2091 34 34 34ZM22 38C22 40.2091 20.2091 42 18 42C15.7909 42 14 40.2091 14 38C14 35.7909 15.7909 34 18 34C20.2091 34 22 35.7909 22 38Z" stroke="#012030" stroke-width="2.5" stroke-linecap="round" stroke-linejoin="round"/>
</svg>
